<mxfile host="Electron" agent="Mozilla/5.0 (Windows NT 10.0; Win64; x64) AppleWebKit/537.36 (KHTML, like Gecko) draw.io/28.1.2 Chrome/138.0.7204.243 Electron/37.4.0 Safari/537.36" version="28.1.2">
  <diagram name="Page-1" id="OgczDqbIr2L5662pv4Uz">
    <mxGraphModel dx="1042" dy="626" grid="1" gridSize="10" guides="1" tooltips="1" connect="1" arrows="1" fold="1" page="1" pageScale="1" pageWidth="850" pageHeight="1100" math="0" shadow="0">
      <root>
        <mxCell id="0" />
        <mxCell id="1" parent="0" />
        <mxCell id="wFT2JARldyq9CAmPzzFJ-6" style="edgeStyle=orthogonalEdgeStyle;rounded=0;orthogonalLoop=1;jettySize=auto;html=1;exitX=1;exitY=0.5;exitDx=0;exitDy=0;entryX=0;entryY=0.5;entryDx=0;entryDy=0;" parent="1" source="wFT2JARldyq9CAmPzzFJ-1" target="wFT2JARldyq9CAmPzzFJ-5" edge="1">
          <mxGeometry relative="1" as="geometry" />
        </mxCell>
        <mxCell id="wFT2JARldyq9CAmPzzFJ-1" value="Start" style="ellipse;whiteSpace=wrap;html=1;fontStyle=1;fontSize=12;fillColor=#d5e8d4;strokeColor=#82b366;" parent="1" vertex="1">
          <mxGeometry x="5" y="300" width="60" height="40" as="geometry" />
        </mxCell>
        <mxCell id="wFT2JARldyq9CAmPzzFJ-8" style="edgeStyle=orthogonalEdgeStyle;rounded=0;orthogonalLoop=1;jettySize=auto;html=1;exitX=1;exitY=0.5;exitDx=0;exitDy=0;entryX=0;entryY=0.5;entryDx=0;entryDy=0;fillColor=#dae8fc;strokeColor=#6c8ebf;" parent="1" source="wFT2JARldyq9CAmPzzFJ-2" target="wFT2JARldyq9CAmPzzFJ-3" edge="1">
          <mxGeometry relative="1" as="geometry" />
        </mxCell>
        <mxCell id="wFT2JARldyq9CAmPzzFJ-2" value="Write &quot;www.google.com&quot; in search bar" style="rounded=0;whiteSpace=wrap;html=1;fillColor=#dae8fc;strokeColor=#6c8ebf;fontStyle=1;fontSize=10;" parent="1" vertex="1">
          <mxGeometry x="200" y="295" width="100" height="50" as="geometry" />
        </mxCell>
        <mxCell id="wFT2JARldyq9CAmPzzFJ-9" style="edgeStyle=orthogonalEdgeStyle;rounded=0;orthogonalLoop=1;jettySize=auto;html=1;exitX=1;exitY=0.5;exitDx=0;exitDy=0;entryX=0;entryY=0.5;entryDx=0;entryDy=0;fillColor=#dae8fc;strokeColor=#6c8ebf;" parent="1" source="wFT2JARldyq9CAmPzzFJ-3" target="wFT2JARldyq9CAmPzzFJ-4" edge="1">
          <mxGeometry relative="1" as="geometry" />
        </mxCell>
        <mxCell id="wFT2JARldyq9CAmPzzFJ-3" value="Press Enter" style="rounded=0;whiteSpace=wrap;html=1;fillColor=#dae8fc;strokeColor=#6c8ebf;fontStyle=1;fontSize=10;" parent="1" vertex="1">
          <mxGeometry x="315" y="295" width="100" height="50" as="geometry" />
        </mxCell>
        <mxCell id="wFT2JARldyq9CAmPzzFJ-11" style="edgeStyle=orthogonalEdgeStyle;rounded=0;orthogonalLoop=1;jettySize=auto;html=1;exitX=1;exitY=0.5;exitDx=0;exitDy=0;entryX=0;entryY=0.5;entryDx=0;entryDy=0;fillColor=#dae8fc;strokeColor=#6c8ebf;" parent="1" source="wFT2JARldyq9CAmPzzFJ-4" target="wFT2JARldyq9CAmPzzFJ-10" edge="1">
          <mxGeometry relative="1" as="geometry" />
        </mxCell>
        <mxCell id="wFT2JARldyq9CAmPzzFJ-4" value="Write &quot;generate random weather in google search bar&quot;" style="rounded=0;whiteSpace=wrap;html=1;fillColor=#dae8fc;strokeColor=#6c8ebf;fontStyle=1;fontSize=10;" parent="1" vertex="1">
          <mxGeometry x="440" y="295" width="100" height="50" as="geometry" />
        </mxCell>
        <mxCell id="wFT2JARldyq9CAmPzzFJ-7" style="edgeStyle=orthogonalEdgeStyle;rounded=0;orthogonalLoop=1;jettySize=auto;html=1;exitX=1;exitY=0.5;exitDx=0;exitDy=0;entryX=0;entryY=0.5;entryDx=0;entryDy=0;fillColor=#dae8fc;strokeColor=#6c8ebf;" parent="1" source="wFT2JARldyq9CAmPzzFJ-5" target="wFT2JARldyq9CAmPzzFJ-2" edge="1">
          <mxGeometry relative="1" as="geometry" />
        </mxCell>
        <mxCell id="wFT2JARldyq9CAmPzzFJ-5" value="Open Edge Web Browser" style="rounded=0;whiteSpace=wrap;html=1;fillColor=#dae8fc;strokeColor=#6c8ebf;fontStyle=1;fontSize=10;" parent="1" vertex="1">
          <mxGeometry x="80" y="295" width="100" height="50" as="geometry" />
        </mxCell>
        <mxCell id="wFT2JARldyq9CAmPzzFJ-13" style="edgeStyle=orthogonalEdgeStyle;rounded=0;orthogonalLoop=1;jettySize=auto;html=1;exitX=1;exitY=0.5;exitDx=0;exitDy=0;entryX=0;entryY=0.5;entryDx=0;entryDy=0;fillColor=#dae8fc;strokeColor=#6c8ebf;" parent="1" source="wFT2JARldyq9CAmPzzFJ-10" target="wFT2JARldyq9CAmPzzFJ-12" edge="1">
          <mxGeometry relative="1" as="geometry" />
        </mxCell>
        <mxCell id="wFT2JARldyq9CAmPzzFJ-10" value="Press google search button" style="rounded=0;whiteSpace=wrap;html=1;fillColor=#dae8fc;strokeColor=#6c8ebf;fontStyle=1;fontSize=10;" parent="1" vertex="1">
          <mxGeometry x="560" y="295" width="100" height="50" as="geometry" />
        </mxCell>
        <mxCell id="wFT2JARldyq9CAmPzzFJ-15" style="edgeStyle=orthogonalEdgeStyle;rounded=0;orthogonalLoop=1;jettySize=auto;html=1;exitX=1;exitY=0.5;exitDx=0;exitDy=0;" parent="1" source="wFT2JARldyq9CAmPzzFJ-12" target="wFT2JARldyq9CAmPzzFJ-14" edge="1">
          <mxGeometry relative="1" as="geometry" />
        </mxCell>
        <mxCell id="wFT2JARldyq9CAmPzzFJ-12" value="Click on the first link appeared" style="rounded=0;whiteSpace=wrap;html=1;fillColor=#dae8fc;strokeColor=#6c8ebf;fontStyle=1;fontSize=10;" parent="1" vertex="1">
          <mxGeometry x="680" y="295" width="100" height="50" as="geometry" />
        </mxCell>
        <mxCell id="wFT2JARldyq9CAmPzzFJ-17" style="edgeStyle=orthogonalEdgeStyle;rounded=0;orthogonalLoop=1;jettySize=auto;html=1;exitX=1;exitY=0.5;exitDx=0;exitDy=0;entryX=0;entryY=0.5;entryDx=0;entryDy=0;" parent="1" source="wFT2JARldyq9CAmPzzFJ-14" edge="1">
          <mxGeometry relative="1" as="geometry">
            <mxPoint x="920" y="320" as="targetPoint" />
          </mxGeometry>
        </mxCell>
        <mxCell id="wFT2JARldyq9CAmPzzFJ-14" value="Choose &quot;Warm&quot; in climate select item" style="rounded=0;whiteSpace=wrap;html=1;fillColor=#dae8fc;strokeColor=#6c8ebf;fontStyle=1;fontSize=10;" parent="1" vertex="1">
          <mxGeometry x="800" y="285" width="100" height="70" as="geometry" />
        </mxCell>
        <mxCell id="wFT2JARldyq9CAmPzzFJ-19" style="edgeStyle=orthogonalEdgeStyle;rounded=0;orthogonalLoop=1;jettySize=auto;html=1;exitX=1;exitY=0.5;exitDx=0;exitDy=0;entryX=0;entryY=0.5;entryDx=0;entryDy=0;" parent="1" edge="1">
          <mxGeometry relative="1" as="geometry">
            <mxPoint x="1020" y="320" as="sourcePoint" />
            <mxPoint x="1040" y="320" as="targetPoint" />
          </mxGeometry>
        </mxCell>
        <mxCell id="wFT2JARldyq9CAmPzzFJ-60" value="End" style="ellipse;whiteSpace=wrap;html=1;fontStyle=1;fontSize=12;fillColor=#d5e8d4;strokeColor=#82b366;" parent="1" vertex="1">
          <mxGeometry x="10" y="420" width="60" height="40" as="geometry" />
        </mxCell>
        <mxCell id="c6uSJeGuoPB6IzsrEqpJ-4" value="Web Browser" style="rounded=0;whiteSpace=wrap;html=1;fillColor=#dae8fc;strokeColor=#6c8ebf;fontStyle=1" parent="1" vertex="1">
          <mxGeometry x="152" y="227" width="110" height="30" as="geometry" />
        </mxCell>
        <mxCell id="c6uSJeGuoPB6IzsrEqpJ-5" value="Windows" style="rounded=0;whiteSpace=wrap;html=1;fillColor=#fff2cc;strokeColor=#d6b656;fontStyle=1" parent="1" vertex="1">
          <mxGeometry x="272" y="227" width="110" height="30" as="geometry" />
        </mxCell>
        <mxCell id="c6uSJeGuoPB6IzsrEqpJ-8" value="" style="rounded=0;whiteSpace=wrap;html=1;fillColor=none;" parent="1" vertex="1">
          <mxGeometry x="142" y="212" width="260" height="55" as="geometry" />
        </mxCell>
        <mxCell id="c6uSJeGuoPB6IzsrEqpJ-9" value="Color Map" style="text;html=1;align=center;verticalAlign=middle;whiteSpace=wrap;rounded=0;strokeColor=default;fontStyle=1;fontSize=11;" parent="1" vertex="1">
          <mxGeometry x="142" y="182" width="75" height="30" as="geometry" />
        </mxCell>
        <mxCell id="V9_zkjnl8a5dVYk0EmCG-1" value="Choose &quot;Winter&quot; in Season select item" style="rounded=0;whiteSpace=wrap;html=1;fillColor=#dae8fc;strokeColor=#6c8ebf;fontStyle=1;fontSize=10;" vertex="1" parent="1">
          <mxGeometry x="920" y="285" width="100" height="70" as="geometry" />
        </mxCell>
        <mxCell id="V9_zkjnl8a5dVYk0EmCG-9" style="edgeStyle=orthogonalEdgeStyle;rounded=0;orthogonalLoop=1;jettySize=auto;html=1;exitX=0.5;exitY=1;exitDx=0;exitDy=0;entryX=0.5;entryY=0;entryDx=0;entryDy=0;" edge="1" parent="1" source="V9_zkjnl8a5dVYk0EmCG-2" target="V9_zkjnl8a5dVYk0EmCG-3">
          <mxGeometry relative="1" as="geometry" />
        </mxCell>
        <mxCell id="V9_zkjnl8a5dVYk0EmCG-2" value="Choose &quot;Rare&quot; in Weather select item" style="rounded=0;whiteSpace=wrap;html=1;fillColor=#dae8fc;strokeColor=#6c8ebf;fontStyle=1;fontSize=10;" vertex="1" parent="1">
          <mxGeometry x="1040" y="285" width="100" height="70" as="geometry" />
        </mxCell>
        <mxCell id="V9_zkjnl8a5dVYk0EmCG-10" style="edgeStyle=orthogonalEdgeStyle;rounded=0;orthogonalLoop=1;jettySize=auto;html=1;exitX=0;exitY=0.5;exitDx=0;exitDy=0;entryX=1;entryY=0.5;entryDx=0;entryDy=0;" edge="1" parent="1" source="V9_zkjnl8a5dVYk0EmCG-3" target="V9_zkjnl8a5dVYk0EmCG-4">
          <mxGeometry relative="1" as="geometry" />
        </mxCell>
        <mxCell id="V9_zkjnl8a5dVYk0EmCG-3" value="Click Generate Button" style="rounded=0;whiteSpace=wrap;html=1;fillColor=#dae8fc;strokeColor=#6c8ebf;fontStyle=1;fontSize=10;" vertex="1" parent="1">
          <mxGeometry x="1040" y="405" width="100" height="70" as="geometry" />
        </mxCell>
        <mxCell id="V9_zkjnl8a5dVYk0EmCG-11" style="edgeStyle=orthogonalEdgeStyle;rounded=0;orthogonalLoop=1;jettySize=auto;html=1;exitX=0;exitY=0.5;exitDx=0;exitDy=0;entryX=1;entryY=0.5;entryDx=0;entryDy=0;" edge="1" parent="1" source="V9_zkjnl8a5dVYk0EmCG-4" target="V9_zkjnl8a5dVYk0EmCG-5">
          <mxGeometry relative="1" as="geometry" />
        </mxCell>
        <mxCell id="V9_zkjnl8a5dVYk0EmCG-4" value="Right click anywhere" style="rounded=0;whiteSpace=wrap;html=1;fillColor=#fff2cc;strokeColor=#d6b656;fontStyle=1;fontSize=10;" vertex="1" parent="1">
          <mxGeometry x="900" y="405" width="120" height="70" as="geometry" />
        </mxCell>
        <mxCell id="V9_zkjnl8a5dVYk0EmCG-12" style="edgeStyle=orthogonalEdgeStyle;rounded=0;orthogonalLoop=1;jettySize=auto;html=1;exitX=0;exitY=0.5;exitDx=0;exitDy=0;entryX=1;entryY=0.5;entryDx=0;entryDy=0;" edge="1" parent="1" source="V9_zkjnl8a5dVYk0EmCG-5" target="V9_zkjnl8a5dVYk0EmCG-6">
          <mxGeometry relative="1" as="geometry" />
        </mxCell>
        <mxCell id="V9_zkjnl8a5dVYk0EmCG-5" value="Choose new, text document, name the file &quot;WeatherInformation&quot;" style="rounded=0;whiteSpace=wrap;html=1;fillColor=#fff2cc;strokeColor=#d6b656;fontStyle=1;fontSize=10;" vertex="1" parent="1">
          <mxGeometry x="760" y="405" width="120" height="70" as="geometry" />
        </mxCell>
        <mxCell id="V9_zkjnl8a5dVYk0EmCG-13" style="edgeStyle=orthogonalEdgeStyle;rounded=0;orthogonalLoop=1;jettySize=auto;html=1;exitX=0;exitY=0.5;exitDx=0;exitDy=0;entryX=1;entryY=0.5;entryDx=0;entryDy=0;" edge="1" parent="1" source="V9_zkjnl8a5dVYk0EmCG-6" target="V9_zkjnl8a5dVYk0EmCG-7">
          <mxGeometry relative="1" as="geometry" />
        </mxCell>
        <mxCell id="V9_zkjnl8a5dVYk0EmCG-6" value="Open the file" style="rounded=0;whiteSpace=wrap;html=1;fillColor=#fff2cc;strokeColor=#d6b656;fontStyle=1;fontSize=10;" vertex="1" parent="1">
          <mxGeometry x="620" y="405" width="120" height="70" as="geometry" />
        </mxCell>
        <mxCell id="V9_zkjnl8a5dVYk0EmCG-14" style="edgeStyle=orthogonalEdgeStyle;rounded=0;orthogonalLoop=1;jettySize=auto;html=1;exitX=0;exitY=0.5;exitDx=0;exitDy=0;entryX=1;entryY=0.5;entryDx=0;entryDy=0;" edge="1" parent="1" source="V9_zkjnl8a5dVYk0EmCG-7" target="V9_zkjnl8a5dVYk0EmCG-8">
          <mxGeometry relative="1" as="geometry" />
        </mxCell>
        <mxCell id="V9_zkjnl8a5dVYk0EmCG-7" value="Extract main info data, and description data" style="rounded=0;whiteSpace=wrap;html=1;fillColor=#dae8fc;strokeColor=#6c8ebf;fontStyle=1;fontSize=10;" vertex="1" parent="1">
          <mxGeometry x="480" y="405" width="120" height="70" as="geometry" />
        </mxCell>
        <mxCell id="V9_zkjnl8a5dVYk0EmCG-18" style="edgeStyle=orthogonalEdgeStyle;rounded=0;orthogonalLoop=1;jettySize=auto;html=1;exitX=0;exitY=0.5;exitDx=0;exitDy=0;entryX=1;entryY=0.5;entryDx=0;entryDy=0;" edge="1" parent="1" source="V9_zkjnl8a5dVYk0EmCG-8" target="V9_zkjnl8a5dVYk0EmCG-16">
          <mxGeometry relative="1" as="geometry" />
        </mxCell>
        <mxCell id="V9_zkjnl8a5dVYk0EmCG-8" value="Paste data into txt file" style="rounded=0;whiteSpace=wrap;html=1;fillColor=#fff2cc;strokeColor=#d6b656;fontStyle=1;fontSize=10;" vertex="1" parent="1">
          <mxGeometry x="340" y="405" width="120" height="70" as="geometry" />
        </mxCell>
        <mxCell id="V9_zkjnl8a5dVYk0EmCG-19" style="edgeStyle=orthogonalEdgeStyle;rounded=0;orthogonalLoop=1;jettySize=auto;html=1;exitX=0;exitY=0.5;exitDx=0;exitDy=0;entryX=1;entryY=0.5;entryDx=0;entryDy=0;" edge="1" parent="1" source="V9_zkjnl8a5dVYk0EmCG-16" target="V9_zkjnl8a5dVYk0EmCG-17">
          <mxGeometry relative="1" as="geometry" />
        </mxCell>
        <mxCell id="V9_zkjnl8a5dVYk0EmCG-16" value="close txt file" style="rounded=0;whiteSpace=wrap;html=1;fillColor=#fff2cc;strokeColor=#d6b656;fontStyle=1;fontSize=10;" vertex="1" parent="1">
          <mxGeometry x="210" y="405" width="120" height="70" as="geometry" />
        </mxCell>
        <mxCell id="V9_zkjnl8a5dVYk0EmCG-20" style="edgeStyle=orthogonalEdgeStyle;rounded=0;orthogonalLoop=1;jettySize=auto;html=1;exitX=0;exitY=0.5;exitDx=0;exitDy=0;entryX=1;entryY=0.5;entryDx=0;entryDy=0;" edge="1" parent="1" source="V9_zkjnl8a5dVYk0EmCG-17" target="wFT2JARldyq9CAmPzzFJ-60">
          <mxGeometry relative="1" as="geometry" />
        </mxCell>
        <mxCell id="V9_zkjnl8a5dVYk0EmCG-17" value="Close edge&amp;nbsp;" style="rounded=0;whiteSpace=wrap;html=1;fillColor=#dae8fc;strokeColor=#6c8ebf;fontStyle=1;fontSize=10;" vertex="1" parent="1">
          <mxGeometry x="80" y="405" width="120" height="70" as="geometry" />
        </mxCell>
      </root>
    </mxGraphModel>
  </diagram>
</mxfile>
